<?xml version="1.0" encoding="UTF-8"?>
<svg xmlns="http://www.w3.org/2000/svg" width="1400" height="900" viewBox="0 0 1400 900">
  <!-- Líneas “rayos” -->
  <g fill="none" stroke="#a6c9ff" stroke-opacity=".42" stroke-width="1.1">
    <!-- bloque superior -->
    <path d="M160 90 L340 150 L260 220 L420 260 L540 180"/>
    <path d="M520 60 L720 180 L640 260 L860 300 L980 180"/>
    <path d="M860 60 L1120 180 L980 300 L1260 360 L1360 240"/>
    <!-- bloque medio superior -->
    <path d="M120 360 L280 300 L420 360 L560 280 L680 360"/>
    <path d="M900 240 L1120 360 L1280 260"/>
    <path d="M1020 520 L1240 430 L1360 580"/>
    <path d="M760 320 L940 380 L1100 340"/>
    <!-- bloque medio -->
    <path d="M140 520 L340 430 L520 560 L700 460"/>
    <path d="M220 600 L420 520 L520 660"/>
    <path d="M460 540 L640 620 L780 520 L900 620"/>
    <path d="M600 560 L820 480 L980 620"/>
    <!-- bloque inferior -->
    <path d="M940 720 L1200 600 L1340 740"/>
    <path d="M160 760 L420 640 L620 800 L760 700 L920 820"/>
    <path d="M1140 660 L1280 840"/>
    <path d="M1060 840 L1220 760 L1360 860"/>
  </g>

  <!-- Puntos brillantes -->
  <g fill="#e9f4ff" fill-opacity=".95">
    <!-- superiores -->
    <circle cx="160" cy="90" r="2.5"/>
    <circle cx="340" cy="150" r="2.2"/>
    <circle cx="260" cy="220" r="2.2"/>
    <circle cx="420" cy="260" r="2.4"/>
    <circle cx="540" cy="180" r="2.4"/>

    <circle cx="520" cy="60" r="2.6"/>
    <circle cx="720" cy="180" r="2.4"/>
    <circle cx="640" cy="260" r="2.2"/>
    <circle cx="860" cy="300" r="2.4"/>
    <circle cx="980" cy="180" r="2.5"/>

    <circle cx="860" cy="60" r="3"/>
    <circle cx="1120" cy="180" r="2.5"/>
    <circle cx="980" cy="300" r="2.5"/>
    <circle cx="1260" cy="360" r="3"/>
    <circle cx="1360" cy="240" r="2.5"/>

    <!-- medio superior -->
    <circle cx="120" cy="360" r="2.2"/>
    <circle cx="280" cy="300" r="2.2"/>
    <circle cx="420" cy="360" r="2.2"/>
    <circle cx="560" cy="280" r="2.3"/>
    <circle cx="680" cy="360" r="2.3"/>

    <circle cx="900" cy="240" r="2.5"/>
    <circle cx="1120" cy="360" r="2.4"/>
    <circle cx="1280" cy="260" r="2.6"/>

    <circle cx="1020" cy="520" r="2.6"/>
    <circle cx="1240" cy="430" r="2.4"/>
    <circle cx="1360" cy="580" r="2.6"/>

    <circle cx="760" cy="320" r="2.3"/>
    <circle cx="940" cy="380" r="2.3"/>
    <circle cx="1100" cy="340" r="2.3"/>

    <!-- medio -->
    <circle cx="140" cy="520" r="2.2"/>
    <circle cx="340" cy="430" r="2.2"/>
    <circle cx="520" cy="560" r="2.4"/>
    <circle cx="700" cy="460" r="2.4"/>

    <circle cx="220" cy="600" r="2.2"/>
    <circle cx="420" cy="520" r="2.3"/>
    <circle cx="520" cy="660" r="2.4"/>

    <circle cx="460" cy="540" r="2.2"/>
    <circle cx="640" cy="620" r="2.4"/>
    <circle cx="780" cy="520" r="2.3"/>
    <circle cx="900" cy="620" r="2.5"/>

    <circle cx="600" cy="560" r="2.3"/>
    <circle cx="820" cy="480" r="2.5"/>
    <circle cx="980" cy="620" r="2.5"/>

    <!-- inferiores -->
    <circle cx="940" cy="720" r="2.4"/>
    <circle cx="1200" cy="600" r="2.8"/>
    <circle cx="1340" cy="740" r="2.5"/>

    <circle cx="160" cy="760" r="2.3"/>
    <circle cx="420" cy="640" r="2.6"/>
    <circle cx="620" cy="800" r="2.4"/>
    <circle cx="760" cy="700" r="2.5"/>
    <circle cx="920" cy="820" r="2.6"/>

    <circle cx="1140" cy="660" r="2.4"/>
    <circle cx="1280" cy="840" r="2.6"/>

    <circle cx="1060" cy="840" r="2.5"/>
    <circle cx="1220" cy="760" r="2.6"/>
    <circle cx="1360" cy="860" r="2.6"/>
  </g>
</svg>
